<?xml version="1.0" encoding="UTF-8" standalone="no"?>
<!-- Created with Inkscape (http://www.inkscape.org/) -->

<svg
   width="512"
   height="512"
   viewBox="0 0 135.46666 135.46667"
   version="1.1"
   id="svg329"
   inkscape:version="1.2.2 (b0a8486541, 2022-12-01)"
   sodipodi:docname="oxyromon.svg"
   inkscape:export-filename="oxyromon.png"
   inkscape:export-xdpi="96"
   inkscape:export-ydpi="96"
   xmlns:inkscape="http://www.inkscape.org/namespaces/inkscape"
   xmlns:sodipodi="http://sodipodi.sourceforge.net/DTD/sodipodi-0.dtd"
   xmlns="http://www.w3.org/2000/svg"
   xmlns:svg="http://www.w3.org/2000/svg">
  <sodipodi:namedview
     id="namedview331"
     pagecolor="#ffffff"
     bordercolor="#666666"
     borderopacity="1.0"
     inkscape:showpageshadow="2"
     inkscape:pageopacity="0.0"
     inkscape:pagecheckerboard="0"
     inkscape:deskcolor="#d1d1d1"
     inkscape:document-units="mm"
     showgrid="true"
     inkscape:zoom="0.55867463"
     inkscape:cx="221.0589"
     inkscape:cy="172.73023"
     inkscape:window-width="1920"
     inkscape:window-height="1020"
     inkscape:window-x="0"
     inkscape:window-y="28"
     inkscape:window-maximized="1"
     inkscape:current-layer="layer1">
    <inkscape:grid
       type="xygrid"
       id="grid1156"
       empspacing="8" />
  </sodipodi:namedview>
  <defs
     id="defs326" />
  <g
     inkscape:label="Layer 1"
     inkscape:groupmode="layer"
     id="layer1">
    <rect
       id="rect387"
       width="131.23334"
       height="131.23334"
       x="2.1166666"
       y="2.1166666"
       style="fill:#ffffff;stroke:#000000;stroke-width:4.23333;stroke-linejoin:miter;stroke-dasharray:none;stroke-opacity:1;fill-opacity:1" />
    <g
       aria-label="x"
       id="text960"
       style="font-size:25.4px;line-height:1.25;font-family:Pixeled;-inkscape-font-specification:Pixeled;stroke-width:0.264583">
      <path
         d="m 21.166666,99.483337 3.591226,-3.591225 3.591225,3.591226 -3.591226,3.591222 z m 14.364901,14.364903 3.591226,-3.59123 3.59561,3.59561 -3.591225,3.59123 z m -7.18245,-14.364902 3.591225,-3.591226 3.591226,3.591226 -3.591226,3.591222 z m 7.182451,7.182452 3.591225,-3.59123 3.591225,3.59123 -3.591225,3.59122 z m 0,-7.182452 3.591225,-3.591226 3.591226,3.591226 -3.591226,3.591222 z m 0,-7.182451 3.591225,-3.591225 3.591226,3.591225 -3.591226,3.591225 z m 7.182451,7.182451 3.591225,-3.591225 3.591225,3.591225 -3.591225,3.591222 z m -7.182451,-14.364902 3.59561,-3.59561 3.591226,3.591225 -3.595611,3.595611 z m 14.364901,14.364902 3.595611,-3.59561 3.59561,3.59561 -3.59561,3.595612 z"
         id="path885" />
    </g>
    <rect
       style="fill:none;stroke:#000000;stroke-width:4.23333;stroke-linejoin:miter;stroke-dasharray:none;stroke-opacity:1"
       id="rect1066"
       width="110.06667"
       height="52.916668"
       x="12.7"
       y="12.7" />
    <g
       aria-label="ROM"
       transform="scale(1.0036291,0.99638398)"
       id="text1070"
       style="font-size:30.0962px;line-height:1.25;font-family:Rust;-inkscape-font-specification:Rust;letter-spacing:1.254px;stroke-width:0.652723">
      <path
         d="M 39.14344,57.357407 V 39.304095 h 6.017771 v 18.053312 z m 0,-24.071083 v -6.025118 h 6.017771 v 6.025118 z M 21.090128,57.357407 V 21.243435 H 39.14344 v 6.017771 H 27.107899 v 6.025118 H 39.14344 v 6.017771 H 27.107899 v 18.053312 z"
         style="font-family:Pixeled;-inkscape-font-specification:Pixeled"
         id="path875" />
      <path
         d="m 58.458099,57.357407 v -6.017771 h 12.035542 v 6.017771 z m -6.01777,-6.017771 v -24.07843 h 6.01777 v 24.07843 z m 18.053312,0 v -24.07843 h 6.01777 v 24.07843 z M 58.458099,27.261206 v -6.017771 h 12.035542 v 6.017771 z"
         style="font-family:Pixeled;-inkscape-font-specification:Pixeled"
         id="path877" />
      <path
         d="m 95.826071,39.304095 v -6.017771 h 6.017769 v 6.017771 z M 83.790529,57.357407 V 21.243435 H 89.8083 v 6.017771 h 6.017771 v 6.025118 H 89.8083 v 24.071083 z m 24.071081,0 V 33.286324 h -6.01777 v -6.025118 h 6.01777 v -6.017771 h 6.02512 v 36.113972 z"
         style="font-family:Pixeled;-inkscape-font-specification:Pixeled"
         id="path879" />
    </g>
    <g
       aria-label="o"
       id="text1142"
       style="font-size:12.7px;line-height:1.25;font-family:Pixeled;-inkscape-font-specification:Pixeled;stroke-width:0.264583">
      <path
         d="m 16.612279,86.975872 1.795613,-1.795612 3.591225,3.591225 -1.795612,1.795613 z m 0,-3.591225 5.386839,-5.386838 1.795612,1.795613 -5.386838,5.386838 z m 5.386838,5.386838 5.386839,-5.386838 1.795612,1.795613 -5.386838,5.386838 z m 1.795613,-8.978063 1.797805,-1.797805 3.591226,3.591225 -1.797805,1.797805 z"
         id="path882" />
    </g>
    <g
       aria-label="y"
       id="text1146"
       style="font-size:9.525px;line-height:1.25;font-family:Rust;-inkscape-font-specification:Rust;stroke-width:0.264583">
      <path
         d="m 47.144638,115.26316 1.34671,-1.34671 4.040128,4.04013 1.34671,-1.34671 -4.040129,-4.04013 4.041773,-4.04177 1.346709,1.34671 -2.695063,2.69506 2.693419,2.69342 2.695063,-2.69506 1.34671,1.34671 -6.735192,6.73519 z"
         style="font-family:Pixeled;-inkscape-font-specification:Pixeled"
         id="path894" />
    </g>
    <g
       aria-label="o"
       id="text1150"
       style="font-size:25.4px;line-height:1.25;font-family:Pixeled;-inkscape-font-specification:Pixeled;stroke-width:0.264583">
      <path
         d="m 77.897058,118.53331 v -5.07876 h 10.157519 v 5.07876 z m -5.07876,-5.07876 V 98.218271 h 5.07876 v 15.236279 z m 15.236279,0 V 98.218271 h 5.07876 V 113.45455 Z M 77.897058,98.218271 V 93.13331 h 10.157519 v 5.084961 z"
         id="path888" />
    </g>
    <g
       aria-label="n"
       id="text1154"
       style="font-size:25.4px;line-height:1.25;font-family:Pixeled;-inkscape-font-specification:Pixeled;stroke-width:0.264583">
      <path
         d="M 98.218292,105.83332 V 80.433321 h 5.078758 v 5.084961 h 5.07876 v 5.07876 h -5.07876 v 15.236278 z m 15.236278,0 V 95.675801 h -5.07876 v -5.078759 h 5.07876 V 80.433321 h 5.07876 v 25.399999 z"
         id="path891" />
    </g>
  </g>
</svg>
